<?xml version="1.0" standalone="no"?>
<!DOCTYPE svg PUBLIC "-//W3C//DTD SVG 20010904//EN"
 "http://www.w3.org/TR/2001/REC-SVG-20010904/DTD/svg10.dtd">
<svg version="1.0" xmlns="http://www.w3.org/2000/svg"
 width="150.000000pt" height="150.000000pt" viewBox="0 0 150.000000 150.000000"
 preserveAspectRatio="xMidYMid meet">
<metadata>
Created by potrace 1.14, written by Peter Selinger 2001-2017
</metadata>
<g transform="translate(0.000000,150.000000) scale(0.100000,-0.100000)"
fill="#000000" stroke="none">
<path d="M0 750 l0 -750 95 0 c52 0 95 3 95 6 0 3 -6 12 -12 19 -30 33 -38 45
-38 54 0 5 -7 11 -15 15 -8 3 -15 14 -15 25 0 11 -5 21 -12 23 -9 3 -12 39
-13 124 l0 119 90 3 c50 2 105 0 123 -3 31 -6 32 -7 32 -60 0 -93 -41 -85 424
-85 l411 0 -4 -120 c-3 -105 -1 -120 13 -120 14 0 16 44 16 450 0 393 2 450
15 450 13 0 15 -57 15 -450 0 -443 0 -450 20 -450 20 0 20 7 20 450 0 410 4
486 24 434 3 -9 6 -211 6 -450 l0 -434 25 0 25 0 0 435 c0 239 3 435 6 435 17
0 35 -32 29 -51 -4 -12 -4 -201 0 -420 l8 -399 58 0 59 0 0 750 0 750 -81 0
-82 0 27 -25 c14 -13 26 -31 26 -39 0 -8 5 -18 10 -21 5 -3 10 -15 10 -25 0
-10 4 -20 9 -22 5 -1 11 -55 12 -118 l4 -115 -120 0 -120 0 -3 68 -3 67 -427
-2 -427 -3 -3 -182 -2 -183 415 0 c388 0 415 -1 416 -17 1 -19 1 -253 0 -265
-1 -5 -196 -8 -435 -8 -418 0 -496 5 -496 31 0 5 -9 9 -20 9 -11 0 -20 7 -20
15 0 8 -7 15 -15 15 -8 0 -15 5 -15 11 0 6 -6 17 -12 24 -32 36 -38 45 -38 64
0 11 -6 21 -13 24 -18 6 -18 548 0 555 7 2 13 15 13 29 0 13 6 31 13 38 29 33
37 45 37 54 0 5 8 12 18 14 9 3 -27 5 -80 6 l-98 1 0 -750z m1430 -325 c0
-243 -4 -375 -10 -375 -6 0 -10 132 -10 375 0 243 4 375 10 375 6 0 10 -132
10 -375z"/>
</g>
</svg>
